 http://img89.imageshack.us/img89/4087/1308615936395.jpg

Country.......: Norway
Genre.........: Comedy, Romance, Sport
Date release..: 2011 [World]
Director......: Kristoffer Metcalfe
Writers.......: Kristoffer Metcalfe, Peder Fuglerud
Duration......: 76 min.
More..........: http://www.imdb.com/title/tt1695763
Trailer.......:

Pilot :
Luckas is 15 years old, who moves from Stockholm to the little town in Norway. Then she meets the girl, in which he falls in love. To draw attention decides to join the local football team.

Cats :
Harald William Borg Weedon   	  	
Kare Hedebrant 		
Jana Opsahl 		
Isak Nikolai Iveland Solli 	... 	Petter
Eira Stuedahl 		
Fridtjov Saheim

Data Technical :
!!! SAMPLE !!!
Audio.....: Norwegian
Subtitles.: English .sub
Format                           : AVI
Format/Info                      : Audio Video Interleave
File size                        : 700 MiB
Duration                         : 1h 15mn
Overall bit rate                 : 1 294 Kbps
Writing application              : VirtualDubMod 1.5.10.2 (build 2540/release)
Writing library                  : VirtualDubMod build 2540/release
Video
ID                               : 0
Format                           : MPEG-4 Visual
Format profile                   : Advanced Simple@L5
Format settings, BVOP            : Yes
Format settings, QPel            : No
Format settings, GMC             : No warppoints
Format settings, Matrix          : Default (H.263)
Codec ID                         : XVID
Codec ID/Hint                    : XviD
Duration                         : 1h 15mn
Bit rate                         : 1 152 Kbps
Width                            : 608 pixels
Height                           : 256 pixels
Display aspect ratio             : 2.35:1
Frame rate                       : 25.000 fps
Color space                      : YUV
Chroma subsampling               : 4:2:0
Bit depth                        : 8 bits
Scan type                        : Progressive
Bits/(Pixel*Frame)               : 0.296
Stream size                      : 623 MiB (89%)
Writing library                  : XviD 1.2.1 (UTC 2008-12-04)
Audio
ID                               : 1
Format                           : MPEG Audio
Format version                   : Version 1
Format profile                   : Layer 3
Mode                             : Joint stereo
Mode extension                   : MS Stereo
Codec ID                         : 55
Codec ID/Hint                    : MP3
Duration                         : 1h 15mn
Bit rate mode                    : Variable
Bit rate                         : 130 Kbps
Minimum bit rate                 : 32.0 Kbps
Channel(s)                       : 2 channels
Sampling rate                    : 48.0 KHz
Stream size                      : 70.2 MiB (10%)
Alignment                        : Aligned on interleaves
Interleave, duration             : 24 ms (0.60 video frame)
Interleave, preload duration     : 141 ms
Writing library                  : LAME3.98r
Encoding settings                : -m j -V 5 -q 2 -lowpass 16.5 --vbr-new -b 32

Screen : 
http://img849.imageshack.us/img849/5471/amorsballer2011s1.jpg 
http://img818.imageshack.us/img818/5659/amorsballer2011s2.jpg 
http://img534.imageshack.us/img534/2112/amorsballer2011s3.jpg 
http://img846.imageshack.us/img846/4206/amorsballer2011s4.jpg 
http://img801.imageshack.us/img801/2686/amorsballer2011s5.jpg